<svg xmlns="http://www.w3.org/2000/svg" width="83" height="20" fill="none"><path fill="#6A6C6A" d="M42.193 3.111a24.488 24.488 0 0 0-4.192 3.099 109.415 109.415 0 0 0-3.836 3.593 70.685 70.685 0 0 0-2.096 2.11l-2.051 2.156c-.371.434-.757.853-1.16 1.257-.401.405-.788.825-1.159 1.258a18.491 18.491 0 0 0 1.828-.539c.562-.19 1.127-.37 1.695-.539.481-.099.957-.219 1.427-.36a14.028 14.028 0 0 1 1.516-.359 6.568 6.568 0 0 1 1.517-.179 3.393 3.393 0 0 1 1.471.224c.565.21.907.569 1.026 1.078.089.329.059.644-.089.943.496-.147.987-.311 1.471-.494.506-.18.981-.344 1.428-.494l2.586-.808c.86-.299 1.739-.539 2.632-.719.237-.06.52-.09.847-.09.357-.03.669 0 .936.09a.96.96 0 0 1 .58.494c.149.21.164.524.045.943a1.3 1.3 0 0 1-.536.674 3.844 3.844 0 0 1-.936.359c-.354.089-.711.164-1.07.225a4.67 4.67 0 0 0-.848.134 89.204 89.204 0 0 0-2.988.943l-2.943.899c-.547.161-1.097.31-1.65.449-.595.179-1.16.209-1.695.09a1.743 1.743 0 0 1-.669-.27c-.505-.389-.743-.748-.714-1.078.03-.329.164-.658.402-.988h-.535c-1.071.18-2.141.405-3.211.674-.884.246-1.762.516-2.632.808-.865.3-1.763.496-2.675.584-.327.03-.654-.03-.981-.18-.328-.12-.565-.374-.714-.763a1.29 1.29 0 0 1 0-.943c.122-.334.287-.652.491-.943a28.44 28.44 0 0 1-2.453 1.302c-.743.329-1.309.569-1.695.719-.829.352-1.662.696-2.497 1.032a6.506 6.506 0 0 1-2.676.494c-.981-.059-1.576-.329-1.784-.808-.208-.479-.164-1.078.134-1.796.267-.748.698-1.542 1.293-2.38a31.177 31.177 0 0 1 1.873-2.47 46.019 46.019 0 0 1 1.873-2.021c.565-.599.937-.988 1.115-1.167l.624-.629h-2.542c-.832 0-1.68.015-2.542.045-1.724.06-3.434.149-5.128.269-1.725.09-3.449.225-5.174.405-.624.089-1.233.179-1.828.269a13.56 13.56 0 0 0-1.873.314c-.149.03-.312.075-.491.135a.688.688 0 0 1-.49 0c-.328-.12-.476-.33-.446-.629 0-.329.148-.539.446-.628a58.347 58.347 0 0 1 11.015-1.752c3.726-.267 7.459-.432 11.194-.494.773-.718 1.546-1.422 2.319-2.11.782-.696 1.569-1.385 2.364-2.066a28.61 28.61 0 0 0 1.338-1.347c.535-.569 1.07-.928 1.605-1.078.297-.09.55-.075.758.045.238.09.417.254.535.494.12.209.164.449.134.718-.029.27-.148.509-.356.719a215.9 215.9 0 0 0-2.721 2.335 64.019 64.019 0 0 0-2.631 2.335c.446 0 .862.06 1.249.18.356.09.669.239.936.449.298.209.506.524.624.943.09.359.045.674-.133.943-.173.235-.403.42-.669.539-.268.09-.55.105-.848.045-.267-.09-.475-.285-.624-.584a5.48 5.48 0 0 0-1.338-.314 8.155 8.155 0 0 0-1.427-.135l-.446.404a406.04 406.04 0 0 0-3.88 3.772c-1.338 1.347-2.393 2.8-3.166 4.356a23.55 23.55 0 0 0 3.211-.898 43.276 43.276 0 0 0 3.255-1.302 61.845 61.845 0 0 0 3.167-1.527 37.532 37.532 0 0 0 2.899-1.751 122.792 122.792 0 0 1 3.434-3.413 91.862 91.862 0 0 1 3.612-3.279 72.214 72.214 0 0 1 2.275-1.931 32.342 32.342 0 0 1 2.363-1.751 2.423 2.423 0 0 1 1.071-.449c.416-.09.758.075 1.025.494.149.269.179.569.09.898-.06.299-.224.539-.491.719Z"/><path fill="#6A6C6A" d="M68.278 16.628c-.692.062-1.379.182-2.051.36-.654.15-1.323.299-2.007.449a442.19 442.19 0 0 1-5.307 1.212 52.23 52.23 0 0 1-5.352.809c-.504.062-1.009.107-1.516.134a9.145 9.145 0 0 1-1.561-.044 6.273 6.273 0 0 1-1.472-.36 3.682 3.682 0 0 1-1.293-.718 2.87 2.87 0 0 1-.758-.943 2.627 2.627 0 0 1-.357-1.123 2.386 2.386 0 0 1 .089-1.123c.119-.389.342-.733.669-1.033.208-.209.535-.374.981-.494a8.075 8.075 0 0 1 1.561-.314c.563-.06 1.13-.075 1.695-.045.565.03 1.055.135 1.472.315.416.179.698.434.847.763.178.299.164.689-.045 1.167a1.54 1.54 0 0 1-.802.764c-.357.15-.759.254-1.204.314-.461.03-.923.03-1.383 0a31.016 31.016 0 0 1-1.249-.179c.119.119.357.224.714.314.357.06.728.105 1.115.135.371.028.743.043 1.115.045h.669c1.453-.12 2.898-.33 4.326-.629 1.445-.297 2.887-.611 4.325-.943 1.041-.24 2.067-.479 3.078-.719a22.962 22.962 0 0 1 3.121-.583c.447-.03.818.075 1.115.314.298.239.491.524.58.853.089.3.045.584-.134.854-.148.269-.475.418-.981.448Z"/><path fill="#6A6C6A" d="M81.739 16.628c-1.517.03-3.063.075-4.638.135a17.233 17.233 0 0 1-4.639-.539.777.777 0 0 1-.356-.09 5.594 5.594 0 0 1-.803 1.483c-.317.438-.692.83-1.115 1.167-.41.326-.88.57-1.383.718-.475.15-.951.165-1.427.046-.446-.12-.773-.345-.981-.674a2.13 2.13 0 0 1-.401-1.123c-.03-.419.029-.838.178-1.257.119-.419.297-.794.535-1.123a3.573 3.573 0 0 1 1.472-1.078 2.62 2.62 0 0 1 1.784-.089c.059-.42.297-.749.713-.988.417-.24.863-.21 1.338.089.447.27.927.482 1.427.629a9.978 9.978 0 0 0 1.651.225c.565.029 1.114.045 1.65.045.565-.03 1.1-.045 1.605-.045.595 0 1.234-.03 1.918-.09.684-.09 1.308-.045 1.873.135.327.119.55.314.669.583.148.27.193.539.134.809-.03.269-.149.508-.357.718-.208.21-.491.314-.847.314Zm-13.335.584c.089-.09.268-.134.535-.134v-.405c-.059.06-.148.135-.267.225a.567.567 0 0 0-.268.314Z"/></svg>