<svg xmlns="http://www.w3.org/2000/svg" width="146" height="17" fill="none"><path fill="#6A6C6A" d="M21.631 8.149a5.928 5.928 0 0 1-5.931 5.924H7.327a5.928 5.928 0 0 1-5.931-5.924 5.927 5.927 0 0 1 5.931-5.924H15.7a5.927 5.927 0 0 1 5.931 5.924ZM7.327.831C3.28.831 0 4.107 0 8.149c0 4.041 3.28 7.318 7.327 7.318H15.7c4.047 0 7.327-3.277 7.327-7.318 0-4.042-3.28-7.318-7.327-7.318Z"/><path fill="#6A6C6A" d="M23.027 8.149c0 4.041-3.28 7.318-7.327 7.318-4.046 0-7.327-3.277-7.327-7.318 0-4.042 3.281-7.318 7.327-7.318 4.047 0 7.327 3.276 7.327 7.318Zm4.054 8.504L32.338 0h4.087l5.257 16.653H38.81L34.04 1.712h.625l-4.712 14.941Zm2.929-3.608v-2.602h8.754v2.602H30.01Zm27.393 3.608V9.067c0-.856-.212-1.523-.637-2.001-.424-.486-.999-.729-1.725-.729a2.33 2.33 0 0 0-1.204.313c-.355.2-.637.501-.845.902-.209.393-.313.863-.313 1.411l-1.239-.729c-.008-.864.186-1.623.579-2.278a4.234 4.234 0 0 1 1.621-1.55c.68-.37 1.436-.555 2.27-.555 1.381 0 2.439.416 3.172 1.249.741.825 1.112 1.912 1.112 3.261v8.292Zm-15.04 0V4.163h2.466v3.874h.347v8.616Zm7.537 0V9.101c0-.871-.212-1.549-.637-2.035-.424-.486-1.003-.729-1.736-.729-.711 0-1.282.243-1.714.729-.425.486-.637 1.118-.637 1.897l-1.25-.833c0-.81.2-1.538.602-2.186a4.285 4.285 0 0 1 1.621-1.526c.687-.378 1.455-.567 2.304-.567.934 0 1.714.2 2.339.601a3.603 3.603 0 0 1 1.412 1.619c.317.679.475 1.446.475 2.302v8.28ZM66.653 17c-1.544 0-2.798-.347-3.763-1.041-.965-.694-1.552-1.669-1.76-2.926l2.848-.439c.147.617.471 1.102.973 1.457.501.355 1.134.532 1.898.532.672 0 1.189-.131 1.552-.393.371-.27.556-.636.556-1.099 0-.285-.07-.513-.209-.682-.131-.178-.424-.347-.88-.509-.455-.162-1.154-.366-2.095-.613-1.05-.278-1.884-.574-2.501-.89-.618-.324-1.062-.706-1.332-1.145-.27-.44-.405-.972-.405-1.596 0-.779.204-1.457.614-2.036.409-.578.98-1.021 1.713-1.329.734-.317 1.598-.475 2.594-.475.973 0 1.833.151 2.582.451.756.301 1.366.729 1.829 1.284.463.555.749 1.206.857 1.954l-2.848.509a1.79 1.79 0 0 0-.73-1.26c-.409-.309-.957-.482-1.644-.521-.656-.038-1.185.062-1.586.301-.401.231-.602.559-.602.983 0 .239.081.443.243.613.162.17.486.339.973.509.494.169 1.227.378 2.2.624.995.255 1.79.548 2.385.879.602.324 1.034.713 1.297 1.168.27.455.405 1.006.405 1.654 0 1.257-.46 2.243-1.378 2.96-.911.717-2.173 1.076-3.786 1.076Zm13.64-.347a11.44 11.44 0 0 1-2.432.197c-.787-.016-1.493-.158-2.119-.428a2.936 2.936 0 0 1-1.424-1.307 3.724 3.724 0 0 1-.451-1.654 71.402 71.402 0 0 1-.024-1.908V.694h2.779v10.697c0 .501.004.941.012 1.319.015.377.096.686.243.925.278.462.722.721 1.332.775.609.053 1.304.023 2.084-.093ZM71.574 6.349V4.163h8.719v2.186h-8.719ZM86.644 17c-1.266 0-2.377-.274-3.334-.821a5.858 5.858 0 0 1-2.247-2.278c-.532-.972-.799-2.09-.799-3.354 0-1.365.263-2.548.788-3.55.525-1.01 1.254-1.793 2.188-2.348.934-.555 2.015-.833 3.242-.833 1.297 0 2.397.305 3.3.914.911.601 1.586 1.453 2.026 2.556.44 1.102.606 2.401.498 3.897h-2.767v-1.018c-.008-1.357-.247-2.347-.718-2.972-.471-.624-1.212-.937-2.223-.937-1.142 0-1.992.355-2.547 1.064-.556.702-.834 1.731-.834 3.088 0 1.265.278 2.244.834 2.938.555.693 1.366 1.04 2.431 1.04.687 0 1.278-.15 1.772-.451.502-.308.888-.751 1.158-1.329l2.755.832c-.478 1.126-1.219 2.001-2.223 2.625a6.082 6.082 0 0 1-3.3.937Zm-4.307-5.817V9.078h8.603v2.105Zm11.163 5.47V4.163h2.467v3.042l-.301-.393c.148-.406.355-.788.613-1.134a3.43 3.43 0 0 1 .938-.855 3.851 3.851 0 0 1 1.019-.486 4.55 4.55 0 0 1 1.158-.22 4.73 4.73 0 0 1 1.146.046v2.602c-.37-.108-.799-.142-1.285-.104a2.955 2.955 0 0 0-1.297.405 2.908 2.908 0 0 0-.949.798c-.24.324-.417.694-.533 1.11a4.857 4.857 0 0 0-.174 1.33v6.349Zm12.648.347c-1.15 0-2.154-.289-3.011-.867-.857-.579-1.52-1.365-1.991-2.36-.471-.994-.707-2.116-.707-3.365 0-1.264.236-2.39.707-3.377.478-.994 1.154-1.777 2.026-2.348.872-.578 1.899-.867 3.08-.867 1.189 0 2.184.289 2.987.867.811.571 1.424 1.354 1.841 2.348.417.995.626 2.12.626 3.377 0 1.242-.209 2.363-.626 3.365-.417.995-1.038 1.781-1.864 2.36-.826.578-1.849.867-3.068.867Zm.428-2.498c.749 0 1.351-.17 1.806-.509.464-.347.799-.829 1.008-1.445.216-.617.324-1.33.324-2.14 0-.817-.108-1.53-.324-2.139-.209-.617-.537-1.095-.984-1.434-.448-.347-1.027-.521-1.737-.521-.749 0-1.367.185-1.853.555-.486.363-.845.856-1.077 1.481-.231.616-.347 1.303-.347 2.058 0 .763.112 1.457.336 2.082.231.617.583 1.106 1.053 1.469.471.362 1.07.543 1.795.543Zm3.138 2.151V7.887h-.347V0h2.813v16.653Zm33.482 0V9.067c0-.856-.213-1.523-.637-2.001-.425-.486-1-.729-1.726-.729a2.33 2.33 0 0 0-1.204.313c-.355.2-.637.501-.845.902-.208.393-.313.863-.313 1.411l-1.239-.729c-.007-.864.186-1.623.579-2.278a4.234 4.234 0 0 1 1.621-1.55c.68-.37 1.436-.555 2.27-.555 1.382 0 2.439.416 3.172 1.249.741.825 1.112 1.912 1.112 3.261v8.292Zm-15.041 0V4.163h2.466v3.874h.347v8.616Zm7.537 0V9.101c0-.871-.212-1.549-.636-2.035-.425-.486-1.004-.729-1.737-.729-.71 0-1.281.243-1.714.729-.424.486-.637 1.118-.637 1.897l-1.25-.833c0-.81.201-1.538.602-2.186a4.285 4.285 0 0 1 1.621-1.526c.687-.378 1.455-.567 2.304-.567.934 0 1.714.2 2.339.601a3.611 3.611 0 0 1 1.413 1.619c.316.679.474 1.446.474 2.302v8.28ZM118.673 17c-.903 0-1.667-.17-2.293-.509-.625-.347-1.1-.805-1.424-1.376a3.828 3.828 0 0 1-.475-1.885c0-.601.101-1.141.301-1.619.201-.486.51-.902.927-1.249.417-.355.957-.644 1.621-.868a15.56 15.56 0 0 1 1.76-.439c.73-.139 1.463-.259 2.2-.358.795-.116 1.625-.239 2.489-.371l-.996.567c.008-.863-.185-1.499-.579-1.908-.393-.409-1.057-.613-1.991-.613-.564 0-1.108.131-1.633.393-.525.262-.891.713-1.1 1.353l-2.547-.798c.309-1.056.895-1.904 1.76-2.544.872-.64 2.045-.96 3.52-.96 1.111 0 2.088.181 2.929.544a3.639 3.639 0 0 1 1.888 1.781 3.8 3.8 0 0 1 .405 1.353c.046.455.069.952.069 1.492v7.667h-2.443v-2.706l.405.439c-.563.902-1.223 1.565-1.979 1.989-.749.417-1.687.625-2.814.625Zm.556-2.22c.633 0 1.173-.112 1.621-.336.447-.223.803-.497 1.065-.821.27-.324.452-.628.544-.913.147-.355.228-.76.243-1.215.023-.462.035-.836.035-1.122l.857.255c-.841.131-1.563.247-2.165.347-.602.1-1.12.196-1.552.289a9.934 9.934 0 0 0-1.146.289 3.578 3.578 0 0 0-.822.405 1.777 1.777 0 0 0-.521.532 1.38 1.38 0 0 0-.174.705c0 .309.077.582.232.821.154.232.378.417.671.555.301.139.672.209 1.112.209Z"/></svg>