<svg display="block" role="presentation" viewBox="0 0 24 24" xmlns="http://www.w3.org/2000/svg" id="4033599021"><path d="M 0.75 18 C 0.336 18 0 17.664 0 17.25 L 0 0.75 C 0 0.336 0.336 0 0.75 0 L 17.25 0 C 17.664 0 18 0.336 18 0.75 L 18 17.25 C 18 17.664 17.664 18 17.25 18 Z" fill-opacity="var(--1m6trwb, 0)" fill="var(--21h8s6, rgb(0, 0, 0))" height="18px" id="ubm8tT7Gs" transform="translate(3 3)" width="18px"></path><path d="M 0.75 18 C 0.336 18 0 17.664 0 17.25 L 0 0.75 C 0 0.336 0.336 0 0.75 0 L 17.25 0 C 17.664 0 18 0.336 18 0.75 L 18 17.25 C 18 17.664 17.664 18 17.25 18 Z" fill="transparent" height="18px" id="uLIbokj1X" stroke-dasharray="" stroke-linecap="round" stroke-linejoin="round" stroke-width="var(--pgex8v, 1.5)" stroke="var(--21h8s6, rgb(0, 0, 0))" transform="translate(3 3)" width="18px"></path><path d="M 0 0 L 0 6" fill="transparent" height="6px" id="wcL4Xtw6S" stroke-dasharray="" stroke-linecap="round" stroke-linejoin="round" stroke-width="var(--pgex8v, 1.5)" stroke="var(--21h8s6, rgb(0, 0, 0))" transform="translate(11.25 10.5)" width="1px"></path><path d="M 0 0 L 0 6" fill="transparent" height="6px" id="haFqKG9T6" stroke-dasharray="" stroke-linecap="round" stroke-linejoin="round" stroke-width="var(--pgex8v, 1.5)" stroke="var(--21h8s6, rgb(0, 0, 0))" transform="translate(8.25 10.5)" width="1px"></path><path d="M 0 2.625 C 0 1.175 1.175 0 2.625 0 C 4.075 0 5.25 1.175 5.25 2.625 L 5.25 6" fill="transparent" height="6px" id="ldXP7NTX2" stroke-dasharray="" stroke-linecap="round" stroke-linejoin="round" stroke-width="var(--pgex8v, 1.5)" stroke="var(--21h8s6, rgb(0, 0, 0))" transform="translate(11.25 10.5)" width="5.25px"></path><path d="M 0 1.125 C 0 0.504 0.504 0 1.125 0 C 1.746 0 2.25 0.504 2.25 1.125 C 2.25 1.746 1.746 2.25 1.125 2.25 C 0.504 2.25 0 1.746 0 1.125 Z" fill="var(--21h8s6, rgb(0, 0, 0))" height="2.25px" id="M86o3vn0T" transform="translate(7.125 6.75)" width="2.25px"></path></svg>