<svg display="block" role="presentation" viewBox="0 0 24 24" xmlns="http://www.w3.org/2000/svg" id="2922751717"><path d="M 0 9 C 0 4.029 4.029 0 9 0 C 13.971 0 18 4.029 18 9 C 18 13.971 13.971 18 9 18 C 4.029 18 0 13.971 0 9 Z" fill-opacity="var(--1m6trwb, 0)" fill="var(--21h8s6, rgb(0, 0, 0))" height="18px" id="LMIUelWZE" transform="translate(3 3)" width="18px"></path><path d="M 0 0 L 0 1.5" fill="transparent" height="1.5px" id="ou4J5FGNY" stroke-dasharray="" stroke-linecap="round" stroke-linejoin="round" stroke-width="var(--pgex8v, 1.5)" stroke="var(--21h8s6, rgb(0, 0, 0))" transform="translate(12 6.75)" width="1px"></path><path d="M 0 0 L 0 1.5" fill="transparent" height="1.5px" id="R94JioAA1" stroke-dasharray="" stroke-linecap="round" stroke-linejoin="round" stroke-width="var(--pgex8v, 1.5)" stroke="var(--21h8s6, rgb(0, 0, 0))" transform="translate(12 15.75)" width="1px"></path><path d="M 0 9 C 0 4.029 4.029 0 9 0 C 13.971 0 18 4.029 18 9 C 18 13.971 13.971 18 9 18 C 4.029 18 0 13.971 0 9 Z" fill="transparent" height="18px" id="v8AfKHwco" stroke-dasharray="" stroke-linecap="round" stroke-linejoin="round" stroke-width="var(--pgex8v, 1.5)" stroke="var(--21h8s6, rgb(0, 0, 0))" transform="translate(3 3)" width="18px"></path><path d="M 0.75 7.5 L 4.125 7.5 C 5.161 7.5 6 6.661 6 5.625 C 6 4.589 5.161 3.75 4.125 3.75 L 1.875 3.75 C 0.839 3.75 0 2.911 0 1.875 C 0 0.839 0.839 0 1.875 0 L 5.25 0" fill="transparent" height="7.5px" id="tlMKNQNYo" stroke-dasharray="" stroke-linecap="round" stroke-linejoin="round" stroke-width="var(--pgex8v, 1.5)" stroke="var(--21h8s6, rgb(0, 0, 0))" transform="translate(9 8.25)" width="6px"></path></svg>