<svg display="block" role="presentation" viewBox="0 0 24 24" xmlns="http://www.w3.org/2000/svg"><path d="M 0 0 L 0 5.25 L 5.25 5.25 Z" fill-opacity="var(--1m6trwb, 0)" fill="var(--21h8s6, rgb(0, 0, 0))" height="5.25px" id="kD7ZMjFle" transform="translate(14.25 3)" width="5.25px"></path><path d="M 0 7.5 L 0 0.75 C 0 0.336 0.336 0 0.75 0 L 9.75 0 L 15 5.25 L 15 7.5" fill="transparent" height="7.5px" id="voeJJGTJK" stroke-dasharray="" stroke-linecap="round" stroke-linejoin="round" stroke-width="var(--pgex8v, 1.5)" stroke="var(--21h8s6, rgb(0, 0, 0))" transform="translate(4.5 3)" width="15px"></path><path d="M 0 0 L 0 5.25 L 5.25 5.25" fill="transparent" height="5.25px" id="fSfrVAnFq" stroke-dasharray="" stroke-linecap="round" stroke-linejoin="round" stroke-width="var(--pgex8v, 1.5)" stroke="var(--21h8s6, rgb(0, 0, 0))" transform="translate(14.25 3)" width="5.25px"></path><path d="M 0 0 L 0 5.25 L 1.5 5.25 C 2.95 5.25 4.125 4.075 4.125 2.625 C 4.125 1.175 2.95 0 1.5 0 Z" fill="transparent" height="5.25px" id="YOf3LxATo" stroke-dasharray="" stroke-linecap="round" stroke-linejoin="round" stroke-width="var(--pgex8v, 1.5)" stroke="var(--21h8s6, rgb(0, 0, 0))" transform="translate(3.375 14.25)" width="4.125px"></path><path d="M 3.75 4.582 C 3.363 5.001 2.821 5.243 2.25 5.25 C 1.007 5.25 0 4.074 0 2.625 C 0 1.176 1.007 0 2.25 0 C 2.821 0.007 3.363 0.249 3.75 0.668" fill="transparent" height="5.25px" id="wjb7Vjytb" stroke-dasharray="" stroke-linecap="round" stroke-linejoin="round" stroke-width="var(--pgex8v, 1.5)" stroke="var(--21h8s6, rgb(0, 0, 0))" transform="translate(16.5 14.25)" width="3.75px"></path><path d="M 0 2.625 C 0 1.175 1.007 0 2.25 0 C 3.493 0 4.5 1.175 4.5 2.625 C 4.5 4.075 3.493 5.25 2.25 5.25 C 1.007 5.25 0 4.075 0 2.625 Z" fill="transparent" height="5.25px" id="B1nqs0vBh" stroke-dasharray="" stroke-linecap="round" stroke-linejoin="round" stroke-width="var(--pgex8v, 1.5)" stroke="var(--21h8s6, rgb(0, 0, 0))" transform="translate(9.75 14.25)" width="4.5px"></path></svg>