<svg display="block" role="presentation" viewBox="0 0 24 24" xmlns="http://www.w3.org/2000/svg"><path d="M 3.75 0 L 0 11.25 L 7.5 11.25 Z" fill-opacity="var(--1m6trwb, 0)" fill="var(--21h8s6, rgb(0, 0, 0))" height="11.25px" id="q_nKPtBGJ" transform="translate(2.25 6)" width="7.5px"></path><path d="M 0 4.125 C 0 1.847 1.847 0 4.125 0 C 6.403 0 8.25 1.847 8.25 4.125 C 8.25 6.403 6.403 8.25 4.125 8.25 C 1.847 8.25 0 6.403 0 4.125 Z" fill-opacity="var(--1m6trwb, 0)" fill="var(--21h8s6, rgb(0, 0, 0))" height="8.25px" id="MpPyBdaZ4" transform="translate(10.5 3)" width="8.25px"></path><path d="M 0 5.25 L 0 0 L 8.25 0 L 8.25 5.25 Z" fill-opacity="var(--1m6trwb, 0)" fill="var(--21h8s6, rgb(0, 0, 0))" height="5.25px" id="vndv5ExCK" transform="translate(12.75 14.25)" width="8.25px"></path><path d="M 3.75 0 L 0 11.25 L 7.5 11.25 Z" fill="transparent" height="11.25px" id="vm9iwQat7" stroke-dasharray="" stroke-linecap="round" stroke-linejoin="round" stroke-width="var(--pgex8v, 1.5)" stroke="var(--21h8s6, rgb(0, 0, 0))" transform="translate(2.25 6)" width="7.5px"></path><path d="M 0 4.125 C 0 1.847 1.847 0 4.125 0 C 6.403 0 8.25 1.847 8.25 4.125 C 8.25 6.403 6.403 8.25 4.125 8.25 C 1.847 8.25 0 6.403 0 4.125 Z" fill="transparent" height="8.25px" id="ZJXViX94I" stroke-dasharray="" stroke-linecap="round" stroke-linejoin="round" stroke-width="var(--pgex8v, 1.5)" stroke="var(--21h8s6, rgb(0, 0, 0))" transform="translate(10.5 3)" width="8.25px"></path><path d="M 0 5.25 L 0 0 L 8.25 0 L 8.25 5.25 Z" fill="transparent" height="5.25px" id="sATOM9inG" stroke-dasharray="" stroke-linecap="round" stroke-linejoin="round" stroke-width="var(--pgex8v, 1.5)" stroke="var(--21h8s6, rgb(0, 0, 0))" transform="translate(12.75 14.25)" width="8.25px"></path></svg>