<svg xmlns="http://www.w3.org/2000/svg" width="95" height="25" fill="none"><path fill="#6A6C6A" d="M29.417 16.91V7.719h2.641l2.454 5.271a37.017 37.017 0 0 1 .534 1.284c.106.25.205.482.293.696h.08c.081-.187.169-.401.267-.642s.196-.477.294-.709l.266-.602 2.455-5.298h2.601v9.191h-1.734v-6.301l.027-.589a22.8 22.8 0 0 1 .026-.508h-.107a8.754 8.754 0 0 1-.173.468 13.59 13.59 0 0 1-.227.535 8.77 8.77 0 0 1-.2.468L36.18 16.91h-1.694l-2.748-5.927c-.08-.169-.16-.343-.24-.521a19.3 19.3 0 0 1-.214-.522 7.187 7.187 0 0 0-.146-.428h-.107c.009.125.013.281.013.468.009.187.014.383.014.589.008.196.013.388.013.575v5.766Zm14.615 0V7.719h1.721v9.191Zm4.455 0V7.719h1.721v7.666h5.776v1.525Zm8.314 0 4.628-9.191h1.961l4.628 9.191h-1.894l-.987-1.98h-5.575l-.987 1.98Zm3.454-3.398h4.189L63.23 11.01a15.82 15.82 0 0 0-.2-.415c-.08-.187-.165-.379-.254-.575-.071-.176-.146-.35-.226-.522a2.311 2.311 0 0 0-.147-.28h-.107l-.28.628-.307.669c-.077.171-.157.34-.24.508Zm9.517 3.398V7.719h1.641l5.402 5.365c.106.098.231.227.373.388.154.154.305.31.454.468.16.16.293.303.4.428h.107a37.389 37.389 0 0 1-.04-1.351V7.719h1.654v9.191h-1.587l-5.416-5.418a28.009 28.009 0 0 1-.694-.723l-.573-.615h-.094c.009.134.014.343.014.629.008.285.013.593.013.923v5.204Zm18.168.16c-1.2 0-2.236-.182-3.107-.548-.872-.366-1.543-.901-2.015-1.606-.471-.713-.706-1.578-.706-2.595 0-1.034.235-1.9.706-2.595.472-.705 1.143-1.24 2.015-1.606.871-.374 1.907-.561 3.107-.561 1.21 0 2.25.187 3.122.562.88.365 1.552.9 2.014 1.605.471.695.707 1.561.707 2.595 0 1.017-.236 1.882-.707 2.595-.462.705-1.134 1.24-2.014 1.606-.872.366-1.912.548-3.122.548Zm.014-1.458c.578 0 1.111-.062 1.601-.187a3.821 3.821 0 0 0 1.293-.575c.368-.252.666-.593.867-.991.205-.401.307-.869.307-1.404v-.308c0-.526-.102-.985-.307-1.378a2.652 2.652 0 0 0-.867-.99 3.821 3.821 0 0 0-1.293-.575 6.463 6.463 0 0 0-1.601-.187 6.68 6.68 0 0 0-1.628.187c-.489.125-.92.317-1.293.575a2.692 2.692 0 0 0-.854.99c-.196.393-.293.852-.293 1.378v.308c0 .535.097 1.003.293 1.404.199.396.492.736.854.99.373.259.804.451 1.293.576a6.68 6.68 0 0 0 1.628.187ZM1.558 25H0V0h24.927v25h-1.558Z"/><path fill="#FFF" d="m6.232 7.813 1.437-.418 4.795 7.609 4.794-7.609 1.437.418v9.375h-1.558v-6.677l-4.015 6.373h-1.317L7.79 10.511v6.677H6.232Z"/></svg>