<svg xmlns="http://www.w3.org/2000/svg" width="113" height="23" fill="none"><path fill="#6A6C6A" d="M3.138 2.749C4.67 1.247 6.75.369 8.858.26c.721 0 1.445.004 2.166-.002-.037.795 0 1.592-.022 2.387a8.921 8.921 0 0 1-1.817 4.907 8.91 8.91 0 0 1-5.813 3.458c-.992.165-1.999.06-2.999.089.018-.875-.036-1.752.031-2.625a9.171 9.171 0 0 1 2.734-5.725ZM11.693.258c.773.009 1.546-.005 2.322.004 1.93.14 3.835.902 5.288 2.222a9.124 9.124 0 0 1 2.984 5.596c.123 1.002.045 2.015.093 3.021-.676-.002-1.35-.004-2.026 0-1.662-.047-3.295-.599-4.686-1.53-.642-.472-1.3-.95-1.781-1.605a8.896 8.896 0 0 1-2.043-4.335c-.204-1.113-.121-2.249-.152-3.373ZM.375 11.738c.687.04 1.376-.034 2.06.044 2.932.065 5.776 1.757 7.295 4.333.871 1.443 1.339 3.153 1.278 4.852-.002.556.007 1.111-.008 1.665-1.088-.033-2.186.058-3.263-.158-2.392-.414-4.591-1.877-5.915-3.965C.819 16.99.318 15.136.371 13.303c0-.523 0-1.044.004-1.565Zm18.344.236c1.179-.27 2.394-.225 3.592-.225l.052.053c-.026 1.165.063 2.343-.164 3.494-.479 2.583-2.143 4.889-4.381 6.156a9.053 9.053 0 0 1-4.585 1.171c-.509.003-1.02-.008-1.529.007 0-.964-.039-1.933.067-2.892.247-2.322 1.469-4.484 3.226-5.945a9.026 9.026 0 0 1 3.722-1.819Zm12.538 6.346c0 .392-.132.724-.396.995a1.265 1.265 0 0 1-.946.384c-.367 0-.675-.128-.924-.384a1.418 1.418 0 0 1-.374-.995V4.344c0-.392.125-.716.374-.972.264-.272.587-.407.968-.407s.69.135.924.407c.25.256.374.581.374.973V18.32ZM41.856 7.601c.381 0 .697.135.946.407.25.256.374.58.374.972v5.744c0 1.598-.432 2.864-1.298 3.799-.866.935-2.112 1.402-3.741 1.402-1.628 0-2.875-.467-3.741-1.402-.85-.935-1.276-2.201-1.276-3.799V8.98c0-.392.125-.716.374-.973.25-.271.565-.406.946-.406.382 0 .697.135.947.407.249.256.374.58.374.972v5.744c0 .92.198 1.606.594 2.058.396.437.99.656 1.782.656.807 0 1.409-.219 1.805-.656.396-.453.594-1.139.594-2.058V8.98c0-.392.125-.716.374-.973a1.23 1.23 0 0 1 .946-.406Zm9.262-.227c1.174 0 2.039.294 2.597.883.557.573.924 1.319 1.1 2.238l-.374-.203.176-.362c.176-.347.447-.716.814-1.108a4.741 4.741 0 0 1 1.32-1.018 3.64 3.64 0 0 1 1.761-.43c1.056 0 1.856.234 2.398.702.558.467.939 1.093 1.145 1.877.205.769.308 1.628.308 2.577v5.79c0 .392-.125.724-.374.995-.25.256-.565.384-.947.384-.381 0-.696-.128-.946-.384a1.418 1.418 0 0 1-.374-.995v-5.789c0-.498-.058-.942-.176-1.334a1.846 1.846 0 0 0-.638-.973c-.308-.241-.748-.362-1.32-.362-.558 0-1.034.121-1.431.362-.384.23-.697.567-.902.973a3.008 3.008 0 0 0-.286 1.334v5.789c0 .393-.125.724-.374.995a1.262 1.262 0 0 1-.946.385 1.26 1.26 0 0 1-.946-.385 1.413 1.413 0 0 1-.374-.995v-5.789c0-.498-.059-.942-.177-1.334a1.846 1.846 0 0 0-.638-.973c-.308-.241-.748-.362-1.32-.362-.557 0-1.034.121-1.43.362a2.383 2.383 0 0 0-.903.973c-.19.392-.285.837-.285 1.334v5.789c0 .393-.125.724-.375.995a1.26 1.26 0 0 1-.946.385c-.381 0-.697-.128-.946-.385a1.413 1.413 0 0 1-.374-.995V8.981c0-.393.124-.717.374-.973a1.23 1.23 0 0 1 .946-.407c.382 0 .697.136.946.407.25.257.375.581.375.973v.972l-.331-.068c.132-.256.316-.528.55-.814.25-.316.539-.597.859-.837.337-.256.711-.46 1.122-.61a3.549 3.549 0 0 1 1.342-.249ZM66.607 18.32c0 .392-.125.724-.374.995a1.265 1.265 0 0 1-.947.384c-.381 0-.696-.128-.946-.384a1.418 1.418 0 0 1-.374-.995V8.98c0-.392.125-.716.374-.973.25-.271.565-.406.946-.406.382 0 .698.135.947.407.249.256.374.58.374.972v9.34ZM65.264 6.131c-.498 0-.85-.083-1.056-.249-.205-.166-.308-.46-.308-.882v-.43c0-.437.11-.731.33-.882.235-.166.587-.249 1.056-.249.514 0 .874.083 1.079.249.205.166.308.46.308.883V5c0 .437-.11.739-.33.905-.22.15-.58.226-1.079.226Zm9.25 1.243c1.086 0 1.907.234 2.464.702.573.467.961 1.093 1.167 1.877.22.769.33 1.628.33 2.577v5.79c0 .392-.125.724-.374.995-.25.256-.565.384-.947.384-.381 0-.696-.128-.946-.384a1.418 1.418 0 0 1-.374-.995v-5.789c0-.498-.066-.942-.198-1.334a1.797 1.797 0 0 0-.66-.973c-.323-.241-.785-.362-1.386-.362-.587 0-1.086.121-1.497.362a2.535 2.535 0 0 0-.924.973 2.837 2.837 0 0 0-.308 1.334v5.789c0 .393-.124.724-.374.995a1.262 1.262 0 0 1-.946.385 1.26 1.26 0 0 1-.946-.385 1.414 1.414 0 0 1-.375-.995V8.981c0-.393.125-.717.375-.973.249-.271.564-.407.946-.407.381 0 .697.136.946.407.25.257.374.581.374.973v.972l-.33-.068c.132-.256.323-.528.572-.814.25-.302.543-.581.88-.837.338-.256.719-.46 1.145-.61a3.777 3.777 0 0 1 1.386-.249Zm17.025 6.287c0 1.237-.271 2.33-.814 3.279a5.76 5.76 0 0 1-2.156 2.194c-.895.528-1.9.792-3.015.792-1.115 0-2.127-.264-3.037-.792a5.98 5.98 0 0 1-2.156-2.194c-.528-.949-.792-2.042-.792-3.279 0-1.236.264-2.321.792-3.256.543-.95 1.261-1.689 2.156-2.216.91-.543 1.922-.815 3.037-.815s2.12.272 3.015.815a5.722 5.722 0 0 1 2.156 2.216c.543.935.814 2.02.814 3.256Zm-2.64 0c0-.769-.154-1.432-.463-1.99a3.283 3.283 0 0 0-1.21-1.334 3.052 3.052 0 0 0-1.672-.475 3.16 3.16 0 0 0-1.694.475c-.499.317-.903.761-1.211 1.334-.293.558-.44 1.222-.44 1.99 0 .754.147 1.418.44 1.99.308.558.712.996 1.211 1.312a3.16 3.16 0 0 0 1.694.475c.616 0 1.173-.158 1.672-.475a3.32 3.32 0 0 0 1.21-1.312c.309-.573.463-1.236.463-1.99Zm12.482-6.06c.381 0 .697.135.946.407.249.256.374.58.374.972v5.744c0 1.598-.432 2.864-1.298 3.799-.866.935-2.112 1.402-3.741 1.402-1.628 0-2.875-.467-3.741-1.402-.85-.935-1.276-2.201-1.276-3.799V8.98c0-.392.125-.716.374-.973.25-.271.565-.406.946-.406.382 0 .697.135.947.407.249.256.374.58.374.972v5.744c0 .92.198 1.606.594 2.058.396.437.99.656 1.782.656.807 0 1.409-.219 1.804-.656.397-.453.595-1.139.595-2.058V8.98c0-.392.125-.716.374-.973a1.23 1.23 0 0 1 .946-.406Zm2.397 10.221c-.147-.211-.213-.482-.198-.814.014-.331.205-.618.572-.859a1.11 1.11 0 0 1 .748-.181c.264.015.521.151.77.407.426.438.873.777 1.342 1.018.47.241 1.057.362 1.761.362.22-.015.462-.045.726-.091.264-.06.491-.181.682-.362.205-.196.308-.49.308-.882 0-.331-.11-.595-.33-.791-.22-.196-.513-.362-.88-.498-.39-.148-.786-.276-1.188-.384a37.085 37.085 0 0 1-1.409-.453 6.092 6.092 0 0 1-1.298-.633 3.165 3.165 0 0 1-.968-1.063c-.249-.437-.374-.987-.374-1.65 0-.754.205-1.395.616-1.923a4.057 4.057 0 0 1 1.584-1.221 5.158 5.158 0 0 1 2.068-.43c.455 0 .932.061 1.431.181.499.106.976.287 1.43.543.455.242.837.566 1.144.973.162.226.257.497.287.814.029.316-.111.603-.419.859a1.08 1.08 0 0 1-.77.249 1.2 1.2 0 0 1-.726-.317 2.573 2.573 0 0 0-1.012-.791c-.411-.196-.888-.294-1.431-.294a3.301 3.301 0 0 0-.726.09 1.272 1.272 0 0 0-.66.339c-.19.166-.286.438-.286.815 0 .346.11.625.33.836.221.196.514.362.881.498a41.2 41.2 0 0 0 1.21.362c.44.121.887.264 1.342.429.455.166.873.385 1.254.656.382.272.69.626.925 1.063.234.422.352.965.352 1.628 0 .769-.22 1.425-.661 1.968-.44.543-.99.957-1.65 1.244a5.297 5.297 0 0 1-2.024.407 7.84 7.84 0 0 1-2.597-.453c-.865-.316-1.584-.867-2.156-1.651Z"/></svg>