<svg xmlns="http://www.w3.org/2000/svg" width="124" height="16" fill="none"><path fill="#6A6C6A" d="M123.845 15.769h-4.362V.232h4.362v15.537Zm-10.187 0h-4.362V.232h4.362v15.537Zm8.076-5.844h-11.301V6.006h11.301Zm-25.506 5.844h-4.502L97.133.233h6.335l5.383 15.536h-4.78l-2.459-7.699-1.23-4.058h-.325L98.781 8.07l-2.553 7.699Zm9.537-2.992h-10.79V8.975h10.79Zm-24.568 2.992h-4.363V.232h4.664l4.34 6.98 1.021 1.901h.301l-.232-1.901V.233h4.34v15.536h-4.641l-4.108-6.47-1.253-2.203h-.301l.232 2.203Zm-16.39 0h-4.362V.232h4.664l4.339 6.98 1.021 1.901h.302l-.232-1.901V.233h4.339v15.536h-4.641l-4.107-6.47-1.253-2.203h-.302l.232 2.203Zm-17.43 0h-4.502L48.282.232h6.335L60 15.769h-4.78L52.76 8.07l-1.23-4.058h-.324L49.929 8.07l-2.552 7.699Zm9.537-2.992h-10.79V8.975h10.79Zm-17.291 2.992h-6.011L28.298.233h4.92l3.295 10.666h.302L40.04.233h4.92l-5.337 15.536Zm-21.853 0h-4.501L18.675.233h6.335l5.384 15.536h-4.78l-2.46-7.699-1.23-4.058h-.325L20.323 8.07l-2.553 7.699Zm9.538-2.992H16.517V8.975h10.791ZM6.985 16c-1.485 0-2.723-.216-3.713-.649-.99-.449-1.733-1.067-2.228-1.855-.495-.804-.742-1.747-.742-2.829v-.302h4.293v.186c0 .417.069.742.208.974.14.216.387.363.743.44.371.077.905.116 1.601.116.82 0 1.354-.069 1.601-.208.263-.14.395-.379.395-.719 0-.248-.039-.441-.116-.58-.062-.139-.186-.247-.372-.325-.185-.093-.456-.162-.812-.208l-3.388-.534c-1.052-.17-1.91-.456-2.575-.858C1.23 8.232.75 7.714.441 7.096.147 6.462 0 5.743 0 4.939c0-.927.24-1.762.719-2.504.48-.742 1.215-1.33 2.205-1.762C3.914.224 5.167 0 6.683 0c1.454 0 2.653.224 3.597.673.944.432 1.647 1.035 2.112 1.808.464.758.696 1.623.696 2.597v.395H8.795v-.279c0-.309-.07-.556-.209-.742-.124-.185-.356-.317-.696-.394-.341-.093-.836-.139-1.485-.139-.82 0-1.37.069-1.648.208-.278.14-.418.356-.418.65a.66.66 0 0 0 .116.394.901.901 0 0 0 .372.278c.185.062.425.124.719.186l3.388.603c1.098.185 1.98.502 2.645.95.681.433 1.168.967 1.462 1.6.31.634.465 1.353.465 2.157a4.9 4.9 0 0 1-.674 2.504c-.433.773-1.129 1.392-2.088 1.855-.944.464-2.197.696-3.759.696Z"/></svg>